<svg xmlns="http://www.w3.org/2000/svg" viewBox="0 0 1024 1024">
<!-- Revised 2026-07-19 -->
<rect width="1024" height="1024" fill="#f4f1ea"/>
<g fill="#000">
<path d="M 339 126 L 339 305 L 369 305 L 369 243 L 400 213 L 457 305 L 493 305 L 460 253 L 459 250 L 455 245 L 454 242 L 450 237 L 436 213 L 432 208 L 431 205 L 427 200 L 426 197 L 422 192 L 428 185 L 489 126 L 450 126 L 370 204 L 369 203 L 369 126 Z"/>
<path d="M 149 126 L 149 305 L 180 305 L 180 228 L 181 227 L 268 227 L 269 228 L 269 305 L 299 305 L 299 126 L 269 126 L 269 200 L 267 202 L 182 202 L 180 200 L 180 126 Z"/>
<path d="M 278 448 L 278 558 L 279 559 L 280 558 L 319 558 L 320 559 L 321 558 L 321 448 Z"/>
<path d="M 368 493 L 368 557 L 367 558 L 368 559 L 369 558 L 409 558 L 410 559 L 410 493 Z"/>
<path d="M 191 493 L 191 559 L 192 558 L 232 558 L 233 559 L 233 493 Z"/>
<path d="M 148 827 L 150 831 L 151 837 L 159 853 L 167 864 L 176 873 L 190 883 L 200 888 L 216 893 L 222 893 L 223 894 L 229 894 L 230 895 L 396 895 L 397 894 L 409 893 L 410 892 L 420 890 L 432 885 L 446 876 L 461 861 L 466 854 L 472 843 L 477 829 L 478 821 L 479 820 L 479 812 L 480 811 L 480 797 L 482 795 L 532 767 L 534 765 L 539 763 L 541 761 L 546 759 L 548 757 L 553 755 L 555 753 L 560 751 L 570 743 L 576 736 L 584 722 L 589 704 L 589 687 L 588 686 L 588 681 L 585 671 L 578 658 L 566 645 L 559 640 L 549 635 L 540 632 L 528 631 L 527 630 L 507 632 L 495 636 L 482 644 L 478 645 L 477 644 L 478 642 L 478 606 L 477 605 L 146 605 L 146 816 L 147 817 Z"/>
</g>
</svg>
