<svg xmlns="http://www.w3.org/2000/svg" viewBox="0 0 512 512">
  <rect width="512" height="512" fill="#F3F1E9"/>
  <path d="M74.4375 153V63H90.625V100.562H134.125V63H150.312V153H134.125V114.125H90.625V153H74.4375Z" fill="#000"/>
  <path d="M169.188 153V63H185.375V101.75L225 63H245.5L211.75 96L247.25 153H228.312L200.25 107.312L185.375 121.875V153H169.188Z" fill="#000"/>
  <g fill="#000">
    <rect x="138.938" y="224" width="22.312" height="56"/>
    <rect x="95.188" y="246.312" width="22.312" height="33.688"/>
    <rect x="183.562" y="246.312" width="22.312" height="33.688"/>
    <path d="M74.188 415.188L79 426.125L81.625 430.062L87.75 436.625L95.188 441.875L105.688 446.25L113.125 447.562H199.75L211.125 444.938L217.688 441.875L225.125 436.625L229.062 432.688L233.875 426.125L238.688 415.188L240 408.625V399L241.312 397.688L280.688 375.375L288.125 368.375L291.625 362.688L294.688 353.062V342.562L292.938 336L289 328.562L283.312 322.438L278.938 319.375L270.625 315.875L266.25 315L254.875 315.438L247.875 317.625L239.562 322.438L239.125 302.312H72.875L72.438 403.375ZM268.438 337.312L271.5 340.375L273.25 346.062L272.812 350L271.062 353.938L265.812 358.312L239.562 372.75L239.125 346.938L256.188 336.438L259.688 335.125H263.625Z" fill-rule="evenodd"/>
  </g>
</svg>
