<svg width="895" height="235" viewBox="0 0 895 235" fill="none" xmlns="http://www.w3.org/2000/svg">
<g clip-path="url(#clip0_77_13)">
<path d="M70.056 182.68C57.624 182.68 46.704 179.88 37.296 174.28C27.888 168.68 20.608 161.12 15.456 151.6C10.304 141.968 7.728 131.384 7.728 119.848C7.728 107.528 10.696 96.272 16.632 86.08C22.568 75.888 30.464 67.88 40.32 62.056C50.176 56.232 60.76 53.32 72.072 53.32C79.016 53.32 85.624 54.328 91.896 56.344C98.28 58.36 104.048 61.272 109.2 65.08C114.352 68.888 118.776 73.536 122.472 79.024L111.72 100.864L104.16 100.192C103.264 94.368 101.472 89.44 98.784 85.408C96.208 81.264 92.512 78.128 87.696 76C82.992 73.76 77.28 72.64 70.56 72.64C63.056 72.64 56.336 74.488 50.4 78.184C44.464 81.768 39.816 86.808 36.456 93.304C33.096 99.8 31.416 107.08 31.416 115.144C31.416 124.104 33.152 132.28 36.624 139.672C40.096 147.064 45.08 152.888 51.576 157.144C58.072 161.4 65.52 163.528 73.92 163.528C79.744 163.528 84.728 162.464 88.872 160.336C93.016 158.096 96.376 155.184 98.952 151.6C101.64 147.904 104.048 143.424 106.176 138.16L113.904 138.328L121.296 158.488L120.792 158.992C115.08 166.272 108.08 172.04 99.792 176.296C91.504 180.552 81.592 182.68 70.056 182.68ZM157.618 182.68C152.466 182.68 148.042 181.672 144.346 179.656C140.65 177.528 137.85 174.784 135.946 171.424C134.042 168.064 133.09 164.592 133.09 161.008C133.09 154.96 135.442 149.696 140.146 145.216C144.85 140.736 151.738 137.544 160.81 135.64L186.346 129.76C185.898 125.168 184.33 121.36 181.642 118.336C178.954 115.2 175.146 113.632 170.218 113.632C165.514 113.632 161.93 114.808 159.466 117.16C157.002 119.4 155.322 122.536 154.426 126.568L136.114 123.88L134.602 121.864C135.834 117.832 138.354 114.08 142.162 110.608C145.97 107.136 150.618 104.336 156.106 102.208C161.706 100.08 167.53 99.016 173.578 99.016C180.41 99.016 186.402 100.304 191.554 102.88C196.706 105.456 200.682 109.04 203.482 113.632C206.282 118.224 207.682 123.488 207.682 129.424V151.936C207.682 155.296 207.962 158.264 208.522 160.84C209.082 163.416 210.034 165.768 211.378 167.896C212.722 169.912 214.57 171.816 216.922 173.608L216.25 178.648L192.562 181.504L190.546 179.992C190.434 179.88 190.378 179.824 190.378 179.824C190.378 179.712 190.322 179.6 190.21 179.488C189.426 177.808 188.698 175.96 188.026 173.944C187.466 171.816 187.074 169.8 186.85 167.896C185.17 170.472 182.818 172.88 179.794 175.12C176.882 177.36 173.466 179.208 169.546 180.664C165.738 182.008 161.762 182.68 157.618 182.68ZM165.178 167.392C167.642 167.392 170.33 166.888 173.242 165.88C176.266 164.76 178.954 163.192 181.306 161.176C183.658 159.16 185.394 156.864 186.514 154.288V140.848C184.162 141.856 181.754 142.752 179.29 143.536C176.938 144.32 174.53 145.048 172.066 145.72C170.274 146.28 168.482 146.84 166.69 147.4C162.882 148.52 159.914 150.032 157.786 151.936C155.77 153.84 154.762 156.024 154.762 158.488C154.762 160.504 155.154 162.184 155.938 163.528C156.834 164.76 158.01 165.712 159.466 166.384C161.034 167.056 162.938 167.392 165.178 167.392ZM228.27 175.96C230.398 171.368 231.966 167.616 232.974 164.704C233.982 161.792 234.486 157.536 234.486 151.936V116.152L219.702 115.984V100.696H234.486V86.416C234.486 80.592 235.886 75.16 238.686 70.12C241.598 65.08 245.63 61.048 250.782 58.024C256.046 54.888 261.926 53.32 268.422 53.32C273.574 53.32 277.942 54.048 281.526 55.504C285.11 56.96 288.47 58.92 291.606 61.384L291.774 61.552L281.19 77.176L280.182 76.336C278.166 74.656 276.038 73.256 273.798 72.136C271.67 71.016 269.542 70.456 267.414 70.456C263.606 70.456 260.694 71.912 258.678 74.824C256.774 77.736 255.822 81.992 255.822 87.592V100.696H282.87L280.518 116.824L255.822 116.488V153.448C255.822 158.376 256.214 162.128 256.998 164.704C257.782 167.168 259.182 170.64 261.198 175.12L262.038 175.96L261.198 181H228.27V175.96ZM329.873 182.68C321.697 182.68 314.417 180.776 308.033 176.968C301.761 173.16 296.833 168.12 293.249 161.848C289.777 155.464 288.041 148.464 288.041 140.848C288.041 133.344 290.001 126.4 293.921 120.016C297.841 113.52 303.105 108.424 309.713 104.728C316.321 100.92 323.321 99.016 330.713 99.016C338.105 99.016 344.713 100.64 350.537 103.888C356.361 107.136 361.009 111.616 364.481 117.328C368.065 123.04 370.193 129.312 370.865 136.144L369.689 139.336C358.601 140.68 348.689 142.08 339.953 143.536C331.217 144.992 321.249 146.112 310.049 146.896C310.385 150.368 311.505 153.616 313.409 156.64C315.425 159.664 318.113 162.072 321.473 163.864C324.945 165.544 328.921 166.384 333.401 166.384C336.649 166.272 339.785 165.712 342.809 164.704C345.833 163.584 348.577 162.128 351.041 160.336C353.617 158.544 355.801 156.528 357.593 154.288L369.857 161.68C367.841 164.928 365.153 168.12 361.793 171.256C358.433 174.28 354.065 176.968 348.689 179.32C343.313 181.56 337.041 182.68 329.873 182.68ZM309.713 134.8C317.329 134.352 323.601 133.792 328.529 133.12C333.569 132.448 340.177 131.552 348.353 130.432C348.017 127.856 347.065 125.392 345.497 123.04C343.929 120.576 341.745 118.504 338.945 116.824C336.145 115.144 332.785 114.304 328.865 114.304C325.169 114.416 321.809 115.424 318.785 117.328C315.873 119.232 313.577 121.752 311.897 124.888C310.329 128.024 309.601 131.328 309.713 134.8ZM467.982 182.68C460.702 182.68 454.038 181.784 447.99 179.992C441.942 178.2 436.118 175.512 430.518 171.928C427.606 170.024 424.806 167.728 422.118 165.04L428.166 140.344L435.39 140.176C439.086 148.352 443.846 154.4 449.67 158.32C455.606 162.128 462.55 164.032 470.502 164.032C475.094 164.032 479.07 163.416 482.43 162.184C485.79 160.952 488.366 159.16 490.158 156.808C492.062 154.344 493.014 151.432 493.014 148.072C493.014 144.712 491.782 141.744 489.318 139.168C486.966 136.48 483.606 134.072 479.238 131.944C474.982 129.816 469.494 127.52 462.774 125.056C455.382 122.368 449.054 119.512 443.79 116.488C438.526 113.352 434.326 109.544 431.19 105.064C428.054 100.584 426.486 95.32 426.486 89.272C426.486 82.216 428.614 76 432.87 70.624C437.126 65.136 442.67 60.88 449.502 57.856C456.334 54.832 463.558 53.32 471.174 53.32C480.358 53.32 488.198 54.944 494.694 58.192C501.302 61.328 507.014 65.696 511.83 71.296L504.27 90.784L497.55 91.288C495.87 87.48 493.798 84.176 491.334 81.376C488.982 78.464 485.902 76.112 482.094 74.32C478.286 72.416 473.694 71.464 468.318 71.464C464.51 71.464 461.038 72.08 457.902 73.312C454.878 74.544 452.47 76.28 450.678 78.52C448.886 80.76 447.99 83.224 447.99 85.912C447.99 89.048 448.942 91.792 450.846 94.144C452.862 96.496 455.774 98.68 459.582 100.696C463.39 102.712 468.71 104.952 475.542 107.416L477.894 108.256C485.398 110.944 491.782 113.856 497.046 116.992C502.422 120.128 506.846 124.16 510.318 129.088C513.79 133.904 515.526 139.728 515.526 146.56C515.526 153.056 513.51 159.048 509.478 164.536C505.558 170.024 500.014 174.448 492.846 177.808C485.678 181.056 477.39 182.68 467.982 182.68ZM526.925 175.96C528.381 172.6 529.501 169.912 530.285 167.896C531.069 165.88 531.629 163.696 531.965 161.344C532.413 158.992 532.637 155.688 532.637 151.432V85.744C532.637 81.824 532.413 78.688 531.965 76.336C531.517 73.984 530.789 71.744 529.781 69.616C528.885 67.488 527.709 64.8 526.253 61.552L526.925 56.512L551.957 52.48L553.805 53.992V114.64L554.813 113.464C559.741 108.872 564.725 105.344 569.765 102.88C574.805 100.304 579.453 99.016 583.709 99.016C589.533 99.016 594.573 100.304 598.829 102.88C603.085 105.344 606.333 108.984 608.573 113.8C610.813 118.616 611.933 124.328 611.933 130.936V153.112C611.933 157.032 612.101 160 612.437 162.016C612.885 164.032 613.445 165.936 614.117 167.728C614.901 169.408 616.077 171.928 617.645 175.288C617.757 175.4 617.869 175.512 617.981 175.624C618.093 175.736 618.205 175.848 618.317 175.96L617.813 181H585.725V176.128C587.181 172.992 588.189 170.528 588.749 168.736C589.421 166.832 589.813 164.872 589.925 162.856C590.149 160.84 590.261 157.872 590.261 153.952V153.28V137.32C590.261 130.712 588.861 125.728 586.061 122.368C583.373 118.896 579.397 117.16 574.133 117.16C571.333 117.16 568.589 117.888 565.901 119.344C563.213 120.8 560.805 122.76 558.677 125.224C556.661 127.688 555.093 130.432 553.973 133.456L553.805 133.96V154.624C553.805 159.552 554.141 163.248 554.813 165.712C555.485 168.064 556.885 171.424 559.013 175.792L559.181 176.128L558.509 181H526.925V175.96ZM668.041 182.68C659.529 182.68 652.025 180.832 645.529 177.136C639.145 173.328 634.217 168.288 630.745 162.016C627.273 155.744 625.537 148.8 625.537 141.184C625.537 133.232 627.553 126.064 631.585 119.68C635.617 113.184 641.049 108.144 647.881 104.56C654.713 100.864 662.105 99.016 670.057 99.016C678.233 99.016 685.457 100.92 691.729 104.728C698.001 108.424 702.873 113.464 706.345 119.848C709.817 126.232 711.553 133.176 711.553 140.68C711.553 148.856 709.593 156.136 705.673 162.52C701.753 168.792 696.433 173.72 689.713 177.304C683.105 180.888 675.881 182.68 668.041 182.68ZM669.385 166.048C673.417 166.048 677.001 165.096 680.137 163.192C683.273 161.288 685.681 158.656 687.361 155.296C689.153 151.824 690.049 147.848 690.049 143.368C690.049 138.104 689.097 133.4 687.193 129.256C685.289 125 682.657 121.64 679.297 119.176C675.937 116.712 672.185 115.48 668.041 115.48C663.785 115.48 660.089 116.544 656.953 118.672C653.817 120.688 651.409 123.488 649.729 127.072C648.049 130.544 647.209 134.464 647.209 138.832C647.209 143.648 648.105 148.128 649.897 152.272C651.801 156.416 654.377 159.776 657.625 162.352C660.985 164.816 664.905 166.048 669.385 166.048ZM752.887 177.136C750.311 175.344 748.127 173.216 746.335 170.752V190.408C746.335 195.56 746.727 199.424 747.511 202C748.295 204.688 749.751 208.328 751.879 212.92L751.207 217.96H719.287V212.92C720.743 209.56 721.863 206.872 722.647 204.856C723.543 202.84 724.159 200.656 724.495 198.304C724.831 195.952 724.999 192.648 724.999 188.392V133.624C724.999 129.592 724.775 126.4 724.327 124.048C723.991 121.696 723.319 119.456 722.311 117.328C721.415 115.088 720.239 112.288 718.783 108.928L719.455 103.888L742.975 99.856L744.991 101.368V103.552C744.991 106.016 745.047 107.976 745.159 109.432C745.383 110.776 745.775 112.4 746.335 114.304C748.239 112.512 749.527 111.224 750.199 110.44C754.679 106.744 758.991 103.944 763.135 102.04C767.279 100.024 771.815 99.016 776.743 99.016C782.791 99.016 788.391 100.752 793.543 104.224C798.807 107.584 803.007 112.4 806.143 118.672C809.279 124.944 810.847 132.224 810.847 140.512C810.847 148.912 808.887 156.304 804.967 162.688C801.159 169.072 796.287 174 790.351 177.472C784.527 180.944 778.703 182.68 772.879 182.68C768.847 182.68 765.151 182.176 761.791 181.168C758.431 180.272 755.463 178.928 752.887 177.136ZM746.335 132.784L745.999 133.96V148.576C747.007 152.272 748.575 155.464 750.703 158.152C752.943 160.728 755.575 162.744 758.599 164.2C761.623 165.544 764.871 166.216 768.343 166.216C772.039 166.216 775.343 165.32 778.255 163.528C781.167 161.624 783.463 158.992 785.143 155.632C786.823 152.16 787.663 147.96 787.663 143.032C787.663 137.656 786.823 132.952 785.143 128.92C783.463 124.888 781.055 121.808 777.919 119.68C774.895 117.44 771.311 116.32 767.167 116.32C764.591 116.32 761.847 116.992 758.935 118.336C756.135 119.568 753.559 121.472 751.207 124.048C748.967 126.512 747.343 129.424 746.335 132.784ZM852.698 182.68C846.426 182.68 840.826 181.784 835.898 179.992C830.97 178.2 826.49 175.568 822.458 172.096C822.01 171.76 821.618 171.48 821.282 171.256C820.946 170.92 820.61 170.528 820.274 170.08L825.314 152.944H830.69C833.154 157.312 836.402 160.728 840.434 163.192C844.466 165.544 849.114 166.72 854.378 166.72C856.842 166.72 858.97 166.44 860.762 165.88C862.666 165.32 864.122 164.48 865.13 163.36C866.138 162.128 866.642 160.616 866.642 158.824C866.642 156.024 865.522 153.952 863.282 152.608C861.042 151.152 857.458 149.752 852.53 148.408C851.634 148.072 850.738 147.792 849.842 147.568C849.282 147.344 848.778 147.232 848.33 147.232C843.514 145.776 839.258 144.208 835.562 142.528C831.866 140.736 828.73 138.328 826.154 135.304C823.578 132.168 822.29 128.304 822.29 123.712C822.29 118.896 823.858 114.64 826.994 110.944C830.13 107.136 834.218 104.224 839.258 102.208C844.41 100.08 849.842 99.016 855.554 99.016C860.93 99.016 865.746 99.8 870.002 101.368C874.258 102.824 878.29 105.064 882.098 108.088C883.442 109.208 884.674 110.384 885.794 111.616L879.41 125.728L874.874 126.232C872.298 122.648 869.33 119.792 865.97 117.664C862.61 115.424 858.634 114.304 854.042 114.304C850.57 114.192 847.826 114.92 845.81 116.488C843.794 117.944 842.786 119.792 842.786 122.032C842.786 124.72 844.13 126.848 846.818 128.416C849.618 129.872 853.93 131.384 859.754 132.952C859.866 132.952 859.922 133.008 859.922 133.12C859.922 133.12 859.978 133.12 860.09 133.12C860.874 133.232 861.546 133.4 862.106 133.624C866.922 134.968 871.122 136.48 874.706 138.16C878.29 139.84 881.314 142.248 883.778 145.384C886.354 148.52 887.642 152.44 887.642 157.144C887.642 162.184 886.13 166.664 883.106 170.584C880.082 174.392 875.938 177.36 870.674 179.488C865.41 181.616 859.418 182.68 852.698 182.68Z" fill="#75736B"/>
</g>
<defs>
<clipPath id="clip0_77_13">
<rect width="895" height="235" fill="white"/>
</clipPath>
</defs>
</svg>
